<svg id="icon" xmlns="http://www.w3.org/2000/svg" viewBox="0 0 130.26 167.36"><defs><style>.cls-1,.cls-4{fill:#ff8b00;}.cls-2,.cls-6{fill:#8657f3;}.cls-3,.cls-5{fill:#fc3d80;}.cls-4,.cls-5,.cls-6{fill-rule:evenodd;}</style></defs><circle class="cls-1" cx="65.13" cy="53.29" r="16.58"/><circle class="cls-2" cx="92.36" cy="26.05" r="11.84"/><circle class="cls-3" cx="56.84" cy="8.29" r="8.29"/><path class="cls-4" d="M93.62,140.31,47.55,185.7a14.21,14.21,0,0,1-24.18-10.12V84.8A14.21,14.21,0,0,1,47.55,74.68l46.07,45.39a14.2,14.2,0,0,1,.15,20.09Z" transform="translate(-23.37 -22.43)"/><path class="cls-5" d="M88.5,145.36,68.26,165.3l10.12,10.27a14.2,14.2,0,0,0,20.09.15l.15-.15,10.12-10.27Z" transform="translate(-23.37 -22.43)"/><path class="cls-6" d="M139.42,70.59a14.21,14.21,0,0,0-10,4.09L88.5,115l5.12,5a14.2,14.2,0,0,1,.15,20.09l-.15.15-5.12,5.05,40.94,40.34a14.22,14.22,0,0,0,24.19-10.12V84.8A14.21,14.21,0,0,0,139.42,70.59Z" transform="translate(-23.37 -22.43)"/></svg>